<svg width="135" height="40" viewBox="0 0 135 40" fill="none" xmlns="http://www.w3.org/2000/svg">
<g id="BandChain">
<g id="Group 2">
<path id="BANDCHAIN" fill-rule="evenodd" clip-rule="evenodd" d="M93.2725 17.1002C93.7601 17.1002 94.2197 17.0359 94.6514 16.9073C95.0831 16.7786 95.4648 16.6199 95.7965 16.431C96.1283 16.2421 96.3901 16.0511 96.5819 15.8582L95.9464 14.785C95.6746 15.0262 95.3309 15.2573 94.9152 15.4784C94.4995 15.6994 94.0079 15.81 93.4403 15.81C92.8808 15.81 92.3592 15.6954 91.8755 15.4663C91.3919 15.2372 91.0002 14.8976 90.7004 14.4474C90.4007 13.9972 90.2508 13.4345 90.2508 12.7593C90.2508 12.1403 90.3967 11.6057 90.6884 11.1555C90.9802 10.7054 91.3579 10.3597 91.8216 10.1185C92.2852 9.87736 92.7728 9.75678 93.2844 9.75678C93.804 9.75678 94.2777 9.86329 94.7054 10.0763C95.133 10.2893 95.5227 10.5607 95.8745 10.8902L96.7018 9.90147C96.502 9.66031 96.2322 9.43121 95.8924 9.21416C95.5527 8.99711 95.165 8.81825 94.7293 8.67757C94.2937 8.53689 93.828 8.46655 93.3324 8.46655C92.7409 8.46655 92.1813 8.57307 91.6537 8.78609C91.1261 8.99912 90.6565 9.29857 90.2448 9.68443C89.8331 10.0703 89.5114 10.5245 89.2795 11.047C89.0477 11.5695 88.9318 12.1403 88.9318 12.7593C88.9318 13.4184 89.0417 14.0153 89.2615 14.5499C89.4814 15.0845 89.7891 15.5407 90.1848 15.9185C90.5805 16.2963 91.0422 16.5877 91.5698 16.7927C92.0974 16.9977 92.6649 17.1002 93.2725 17.1002ZM53.7269 16.8651C53.3752 16.9415 53.0234 16.9796 52.6717 16.9796H48.5469V8.53893H52.4798C53.3911 8.53893 54.0786 8.7198 54.5423 9.08155C55.0059 9.44329 55.2377 9.96983 55.2377 10.6612C55.2377 11.039 55.1378 11.3786 54.938 11.6801C54.7381 11.9815 54.4463 12.2127 54.0626 12.3734C54.3504 12.4699 54.6162 12.6066 54.86 12.7834C55.1038 12.9603 55.3017 13.1894 55.4536 13.4707C55.6054 13.7521 55.6814 14.0937 55.6814 14.4957C55.6814 14.986 55.5914 15.392 55.4116 15.7135C55.2317 16.0351 54.9939 16.2883 54.6981 16.4732C54.4024 16.6581 54.0786 16.7887 53.7269 16.8651ZM49.8419 12.0117H52.5278C52.8956 12.0036 53.2193 11.9031 53.4991 11.7102C53.7789 11.5173 53.9188 11.244 53.9188 10.8903C53.9188 10.4964 53.7709 10.215 53.4751 10.0462C53.1793 9.87738 52.8156 9.79297 52.384 9.79297H49.8419V12.0117ZM52.6478 15.7256H49.8419V13.2657H52.5878C52.8596 13.2657 53.1314 13.3019 53.4032 13.3742C53.675 13.4466 53.9028 13.5712 54.0866 13.748C54.2705 13.9249 54.3624 14.166 54.3624 14.4715C54.3624 14.8976 54.2026 15.2131 53.8828 15.4181C53.5631 15.6231 53.1514 15.7256 52.6478 15.7256ZM59.4709 14.9298L58.5956 16.9797H57.2646L60.8499 8.53894H62.2528L65.8141 16.9797H64.4111L63.5478 14.9298H59.4709ZM63.0198 13.6757H59.9981L60.8614 11.6499C60.9733 11.3846 61.0813 11.1073 61.1852 10.8179C61.2891 10.5285 61.397 10.2311 61.5089 9.9256C61.6129 10.223 61.7168 10.5104 61.8207 10.7878C61.9246 11.0651 62.0285 11.3364 62.1325 11.6017L63.0198 13.6757ZM69.3145 13.4707V16.9797H68.0195V8.53894H69.2306L74.8423 15.2192C74.7863 14.8253 74.7444 14.4032 74.7164 13.9531C74.6884 13.5029 74.6704 13.0507 74.6624 12.5965C74.6544 12.1423 74.6504 11.7143 74.6504 11.3123V8.53894H75.9454V16.9797H74.7104L69.0987 10.4562C69.1467 10.9546 69.1946 11.455 69.2426 11.9574C69.2906 12.4599 69.3145 12.9643 69.3145 13.4707ZM82.7688 16.9797C83.6961 16.9797 84.4755 16.7887 85.107 16.4069C85.7385 16.0251 86.2141 15.5146 86.5339 14.8755C86.8536 14.2364 87.0135 13.531 87.0135 12.7593C87.0135 12.1885 86.9236 11.6479 86.7437 11.1375C86.5639 10.627 86.2941 10.1768 85.9343 9.78696C85.5746 9.39708 85.131 9.09161 84.6034 8.87054C84.0758 8.64947 83.4642 8.53894 82.7688 8.53894H79.0996V16.9797H82.7688ZM80.3944 15.7256H82.7086C83.4041 15.7256 83.9696 15.5909 84.4053 15.3216C84.8409 15.0523 85.1607 14.6946 85.3645 14.2485C85.5684 13.8023 85.6703 13.3059 85.6703 12.7593C85.6703 12.2287 85.5684 11.7384 85.3645 11.2882C85.1607 10.838 84.8389 10.4763 84.3993 10.2029C83.9596 9.92963 83.3961 9.79297 82.7086 9.79297H80.3944V15.7256ZM100.442 13.4225V16.9797H99.1475V8.53894H100.442V12.1684H105.299V8.53894H106.594V16.9797H105.299V13.4225H100.442ZM110.119 16.9797L110.994 14.9298H115.071L115.935 16.9797H117.338L113.776 8.53894H112.373L108.788 16.9797H110.119ZM112.386 11.6499L111.522 13.6757H114.544L113.657 11.6017C113.553 11.3364 113.449 11.0651 113.345 10.7878C113.241 10.5104 113.137 10.223 113.033 9.9256C112.921 10.2311 112.813 10.5285 112.709 10.8179C112.606 11.1073 112.498 11.3846 112.386 11.6499ZM124.065 16.9797V15.7377H122.374V9.78093H124.065V8.53894H119.389V9.78093H121.079V15.7377H119.389V16.9797H124.065ZM128.369 13.4707V16.9797H127.074V8.53894H128.285L133.897 15.2192C133.841 14.8253 133.799 14.4032 133.771 13.9531C133.743 13.5029 133.725 13.0507 133.717 12.5965C133.709 12.1423 133.705 11.7143 133.705 11.3123V8.53894H135V16.9797H133.765L128.154 10.4562C128.202 10.9546 128.25 11.455 128.297 11.9574C128.345 12.4599 128.369 12.9643 128.369 13.4707Z" fill="white"/>
<path id="Cosmoscan" fill-rule="evenodd" clip-rule="evenodd" d="M52.53 32.9969C52.1703 33.1041 51.7872 33.1577 51.3809 33.1577C50.8746 33.1577 50.4016 33.0722 49.962 32.9014C49.5223 32.7306 49.1376 32.4878 48.8079 32.1729C48.4781 31.8581 48.2217 31.4779 48.0385 31.0324C47.8553 30.5869 47.7637 30.0895 47.7637 29.5402C47.7637 29.0244 47.8603 28.5488 48.0534 28.1133C48.2466 27.6779 48.5148 27.2994 48.8578 26.9778C49.2009 26.6563 49.5923 26.4068 50.0319 26.2292C50.4716 26.0517 50.9379 25.963 51.4308 25.963C51.8439 25.963 52.2319 26.0216 52.595 26.1388C52.958 26.256 53.2811 26.4051 53.5642 26.586C53.8473 26.7668 54.0721 26.9578 54.2387 27.1587L53.5492 27.9827C53.2561 27.708 52.9314 27.4819 52.575 27.3044C52.2186 27.1269 51.8239 27.0381 51.3909 27.0381C50.9645 27.0381 50.5582 27.1386 50.1718 27.3396C49.7854 27.5406 49.4707 27.8286 49.2275 28.2038C48.9844 28.5789 48.8628 29.0244 48.8628 29.5402C48.8628 30.1029 48.9877 30.5719 49.2375 30.947C49.4873 31.3221 49.8138 31.6052 50.2168 31.7961C50.6198 31.987 51.0545 32.0825 51.5208 32.0825C51.9937 32.0825 52.4034 31.9904 52.7498 31.8061C53.0962 31.6219 53.3827 31.4293 53.6092 31.2284L54.1388 32.1227C53.9789 32.2834 53.7607 32.4425 53.4843 32.6C53.2078 32.7574 52.8897 32.8897 52.53 32.9969ZM60.2491 32.806C59.7994 33.0404 59.2882 33.1577 58.7153 33.1577C58.1424 33.1577 57.6294 33.0404 57.1765 32.806C56.7235 32.5715 56.3671 32.2483 56.1073 31.8363C55.8475 31.4243 55.7176 30.9504 55.7176 30.4144C55.7176 29.8785 55.8475 29.4046 56.1073 28.9926C56.3671 28.5806 56.7235 28.2574 57.1765 28.0229C57.6294 27.7884 58.1424 27.6712 58.7153 27.6712C59.2882 27.6712 59.7994 27.7884 60.2491 28.0229C60.6987 28.2574 61.0535 28.5806 61.3133 28.9926C61.5731 29.4046 61.703 29.8785 61.703 30.4144C61.703 30.9504 61.5731 31.4243 61.3133 31.8363C61.0535 32.2483 60.6987 32.5715 60.2491 32.806ZM58.7153 32.2131C58.3489 32.2131 58.0175 32.1361 57.721 31.982C57.4246 31.8279 57.1898 31.6153 57.0166 31.3439C56.8434 31.0726 56.7601 30.7628 56.7668 30.4145C56.7601 30.0594 56.8434 29.7462 57.0166 29.4749C57.1898 29.2036 57.4246 28.9926 57.721 28.8419C58.0175 28.6911 58.3489 28.6158 58.7153 28.6158C59.0816 28.6158 59.4131 28.6911 59.7095 28.8419C60.0059 28.9926 60.2391 29.2036 60.409 29.4749C60.5788 29.7462 60.6604 30.0594 60.6538 30.4145C60.6604 30.7628 60.5788 31.0726 60.409 31.3439C60.2391 31.6153 60.0059 31.8279 59.7095 31.982C59.4131 32.1361 59.0816 32.2131 58.7153 32.2131ZM66.6841 32.9667C66.3544 33.094 65.9963 33.1577 65.6099 33.1577C65.137 33.1577 64.6873 33.0857 64.261 32.9416C63.8346 32.7976 63.4749 32.5514 63.1818 32.2031L63.8813 31.5801C64.0944 31.8011 64.3426 31.977 64.6257 32.1076C64.9088 32.2382 65.2402 32.3035 65.6199 32.3035C65.7865 32.3035 65.9597 32.2835 66.1395 32.2433C66.3194 32.2031 66.4726 32.1344 66.5992 32.0373C66.7257 31.9401 66.789 31.8045 66.789 31.6303C66.789 31.4762 66.7257 31.3523 66.5992 31.2585C66.4726 31.1647 66.3027 31.0894 66.0896 31.0324C65.8764 30.9755 65.6466 30.9236 65.4001 30.8767C65.0404 30.7963 64.7006 30.7008 64.3809 30.5903C64.0611 30.4798 63.803 30.3156 63.6065 30.0979C63.41 29.8802 63.3117 29.5771 63.3117 29.1885C63.3117 28.8804 63.41 28.6124 63.6065 28.3846C63.803 28.1569 64.0678 27.981 64.4009 27.8571C64.7339 27.7332 65.1003 27.6712 65.5 27.6712C65.7532 27.6712 66.0196 27.6997 66.2994 27.7566C66.5792 27.8136 66.8473 27.904 67.1038 28.0279C67.3602 28.1519 67.5784 28.3143 67.7583 28.5153L67.1887 29.1885C66.9622 29.001 66.6958 28.8435 66.3893 28.7162C66.0829 28.589 65.7965 28.5253 65.53 28.5253C65.3568 28.5253 65.1786 28.5421 64.9954 28.5756C64.8122 28.6091 64.6573 28.671 64.5308 28.7615C64.4042 28.8519 64.3409 28.9842 64.3409 29.1584C64.3409 29.3192 64.4042 29.4481 64.5308 29.5452C64.6573 29.6424 64.8255 29.7211 65.0354 29.7814C65.2452 29.8417 65.4767 29.8986 65.7298 29.9522C65.983 30.0058 66.2311 30.0678 66.4743 30.1381C66.7174 30.2084 66.9372 30.3022 67.1338 30.4195C67.3303 30.5367 67.4885 30.6841 67.6084 30.8616C67.7283 31.0391 67.7883 31.2619 67.7883 31.5298C67.7883 31.8782 67.6867 32.1729 67.4835 32.4141C67.2803 32.6552 67.0138 32.8395 66.6841 32.9667ZM70.7755 33.0571V30.0426C70.7755 29.8148 70.8421 29.5954 70.9754 29.3844C71.1086 29.1734 71.2935 28.9975 71.5299 28.8568C71.7664 28.7162 72.0346 28.6458 72.3343 28.6458C72.7873 28.6458 73.1121 28.7731 73.3086 29.0277C73.5051 29.2822 73.6033 29.6105 73.6033 30.0124V33.0571H74.6425V30.1431C74.6425 29.8684 74.7142 29.6172 74.8574 29.3894C75.0006 29.1616 75.1988 28.9808 75.4519 28.8468C75.7051 28.7128 75.9915 28.6458 76.3113 28.6458C76.7509 28.6458 77.059 28.7748 77.2356 29.0327C77.4121 29.2906 77.5003 29.6239 77.5003 30.0325V33.0571H78.5395V29.932C78.5395 29.5167 78.4813 29.1399 78.3647 28.8016C78.2481 28.4633 78.0466 28.1936 77.7601 27.9927C77.4737 27.7917 77.0807 27.6912 76.5811 27.6912C76.2613 27.6912 75.9649 27.7498 75.6917 27.8671C75.4186 27.9843 75.1788 28.13 74.9723 28.3042C74.7658 28.4784 74.6059 28.6458 74.4927 28.8066C74.3661 28.4449 74.1529 28.1685 73.8532 27.9776C73.5534 27.7867 73.1803 27.6912 72.734 27.6912C72.2944 27.6912 71.9047 27.7884 71.5649 27.9826C71.2252 28.1769 70.9621 28.3913 70.7755 28.6257V27.7817H69.7363V33.0571H70.7755ZM85.0296 32.806C84.5799 33.0404 84.0686 33.1577 83.4957 33.1577C82.9228 33.1577 82.4099 33.0404 81.9569 32.806C81.5039 32.5715 81.1475 32.2483 80.8877 31.8363C80.6279 31.4243 80.498 30.9504 80.498 30.4144C80.498 29.8785 80.6279 29.4046 80.8877 28.9926C81.1475 28.5806 81.5039 28.2574 81.9569 28.0229C82.4099 27.7884 82.9228 27.6712 83.4957 27.6712C84.0686 27.6712 84.5799 27.7884 85.0296 28.0229C85.4792 28.2574 85.8339 28.5806 86.0937 28.9926C86.3535 29.4046 86.4834 29.8785 86.4834 30.4144C86.4834 30.9504 86.3535 31.4243 86.0937 31.8363C85.8339 32.2483 85.4792 32.5715 85.0296 32.806ZM83.4957 32.2131C83.1294 32.2131 82.7979 32.1361 82.5015 31.982C82.2051 31.8279 81.9703 31.6153 81.7971 31.3439C81.6239 31.0726 81.5406 30.7628 81.5472 30.4145C81.5406 30.0594 81.6239 29.7462 81.7971 29.4749C81.9703 29.2036 82.2051 28.9926 82.5015 28.8419C82.7979 28.6911 83.1294 28.6158 83.4957 28.6158C83.8621 28.6158 84.1935 28.6911 84.49 28.8419C84.7864 28.9926 85.0196 29.2036 85.1894 29.4749C85.3593 29.7462 85.4409 30.0594 85.4342 30.4145C85.4409 30.7628 85.3593 31.0726 85.1894 31.3439C85.0196 31.6153 84.7864 31.8279 84.49 31.982C84.1935 32.1361 83.8621 32.2131 83.4957 32.2131ZM91.465 32.9667C91.1353 33.094 90.7772 33.1577 90.3908 33.1577C89.9179 33.1577 89.4682 33.0857 89.0419 32.9416C88.6155 32.7976 88.2558 32.5514 87.9627 32.2031L88.6622 31.5801C88.8753 31.8011 89.1235 31.977 89.4066 32.1076C89.6897 32.2382 90.0211 32.3035 90.4008 32.3035C90.5674 32.3035 90.7406 32.2835 90.9204 32.2433C91.1003 32.2031 91.2535 32.1344 91.3801 32.0373C91.5066 31.9401 91.5699 31.8045 91.5699 31.6303C91.5699 31.4762 91.5066 31.3523 91.3801 31.2585C91.2535 31.1647 91.0836 31.0894 90.8705 31.0324C90.6573 30.9755 90.4275 30.9236 90.181 30.8767C89.8213 30.7963 89.4815 30.7008 89.1618 30.5903C88.842 30.4798 88.5839 30.3156 88.3874 30.0979C88.1909 29.8802 88.0926 29.5771 88.0926 29.1885C88.0926 28.8804 88.1909 28.6124 88.3874 28.3846C88.5839 28.1569 88.8487 27.981 89.1818 27.8571C89.5148 27.7332 89.8812 27.6712 90.2809 27.6712C90.5341 27.6712 90.8005 27.6997 91.0803 27.7566C91.3601 27.8136 91.6282 27.904 91.8847 28.0279C92.1411 28.1519 92.3593 28.3143 92.5392 28.5153L91.9696 29.1885C91.7431 29.001 91.4767 28.8435 91.1702 28.7162C90.8638 28.589 90.5774 28.5253 90.3109 28.5253C90.1377 28.5253 89.9595 28.5421 89.7763 28.5756C89.5931 28.6091 89.4382 28.671 89.3117 28.7615C89.1851 28.8519 89.1218 28.9842 89.1218 29.1584C89.1218 29.3192 89.1851 29.4481 89.3117 29.5452C89.4382 29.6424 89.6064 29.7211 89.8163 29.7814C90.0261 29.8417 90.2576 29.8986 90.5107 29.9522C90.7639 30.0058 91.012 30.0678 91.2552 30.1381C91.4983 30.2084 91.7181 30.3022 91.9147 30.4195C92.1112 30.5367 92.2694 30.6841 92.3893 30.8616C92.5092 31.0391 92.5692 31.2619 92.5692 31.5298C92.5692 31.8782 92.4676 32.1729 92.2644 32.4141C92.0612 32.6552 91.7948 32.8395 91.465 32.9667ZM96.8854 33.1577C97.4117 33.1577 97.888 33.0605 98.3143 32.8663C98.7407 32.672 99.0871 32.4476 99.3535 32.193L98.784 31.4494C98.5841 31.6303 98.3343 31.8045 98.0346 31.9719C97.7348 32.1394 97.3751 32.2232 96.9554 32.2232C96.6156 32.2232 96.3026 32.1444 96.0161 31.987C95.7297 31.8296 95.5015 31.6152 95.3316 31.3439C95.1618 31.0726 95.0768 30.7628 95.0768 30.4144C95.0768 30.0661 95.1568 29.7563 95.3166 29.485C95.4765 29.2136 95.698 28.9993 95.9811 28.8419C96.2643 28.6844 96.5857 28.6057 96.9454 28.6057C97.1652 28.6057 97.39 28.6459 97.6199 28.7263C97.8497 28.8067 98.0662 28.9122 98.2694 29.0428C98.4725 29.1735 98.6441 29.3192 98.784 29.4799L99.3535 28.7162C99.1204 28.4014 98.7856 28.1485 98.3493 27.9576C97.913 27.7667 97.425 27.6712 96.8854 27.6712C96.3525 27.6712 95.8712 27.7918 95.4416 28.0329C95.0119 28.2741 94.6738 28.6007 94.4273 29.0127C94.1809 29.4247 94.0576 29.8919 94.0576 30.4144C94.0576 30.9303 94.1809 31.3958 94.4273 31.8112C94.6738 32.2265 95.0119 32.5548 95.4416 32.7959C95.8712 33.0371 96.3525 33.1577 96.8854 33.1577ZM104.285 33.017C104.015 33.1108 103.723 33.1577 103.41 33.1577C102.891 33.1577 102.429 33.0404 102.026 32.806C101.623 32.5715 101.307 32.2466 101.077 31.8313C100.847 31.4159 100.732 30.9403 100.732 30.4044C100.732 29.8685 100.852 29.3962 101.092 28.9876C101.332 28.5789 101.663 28.2574 102.086 28.0229C102.509 27.7884 102.994 27.6712 103.54 27.6712C103.973 27.6712 104.358 27.7549 104.694 27.9224C105.031 28.0899 105.296 28.2842 105.489 28.5052V27.7817H106.518V33.0572H105.489V32.193C105.369 32.3538 105.206 32.5079 104.999 32.6552C104.793 32.8026 104.554 32.9232 104.285 33.017ZM103.651 32.203C103.284 32.203 102.959 32.1243 102.676 31.9669C102.393 31.8095 102.173 31.5968 102.017 31.3288C101.86 31.0609 101.782 30.7527 101.782 30.4044C101.782 30.0694 101.86 29.768 102.017 29.5C102.173 29.2321 102.393 29.0194 102.676 28.8619C102.959 28.7045 103.284 28.6258 103.651 28.6258C104.017 28.6258 104.342 28.7045 104.625 28.8619C104.908 29.0194 105.129 29.2321 105.289 29.5C105.449 29.768 105.529 30.0694 105.529 30.4044C105.529 30.7527 105.449 31.0609 105.289 31.3288C105.129 31.5968 104.908 31.8095 104.625 31.9669C104.342 32.1243 104.017 32.203 103.651 32.203ZM110.086 30.0225V33.0572H109.056V27.7817H110.086V28.666C110.286 28.4047 110.552 28.1736 110.885 27.9727C111.218 27.7717 111.591 27.6712 112.004 27.6712C112.511 27.6712 112.915 27.7717 113.218 27.9727C113.521 28.1736 113.741 28.4399 113.878 28.7715C114.014 29.1031 114.083 29.4732 114.083 29.8819V33.0572H113.053V29.9924C113.053 29.5905 112.94 29.2589 112.714 28.9976C112.487 28.7363 112.151 28.6124 111.704 28.6258C111.391 28.6258 111.113 28.6945 110.87 28.8318C110.627 28.9691 110.435 29.145 110.296 29.3593C110.156 29.5737 110.086 29.7948 110.086 30.0225Z" fill="white"/>
</g>
<g id="Group 6">
<g id="Group 3">
<mask id="mask0_3197_4735" style="mask-type:luminance" maskUnits="userSpaceOnUse" x="0" y="0" width="40" height="40">
<path id="Clip 2" fill-rule="evenodd" clip-rule="evenodd" d="M0 0H39.7764V40H0V0Z" fill="white"/>
</mask>
<g mask="url(#mask0_3197_4735)">
<path id="Fill 1" fill-rule="evenodd" clip-rule="evenodd" d="M19.8882 40C8.90434 40 0 31.0457 0 20C0 8.95429 8.90434 0 19.8882 0C30.8722 0 39.7765 8.95429 39.7765 20C39.7765 31.0457 30.8722 40 19.8882 40Z" fill="#4520E6"/>
</g>
</g>
<path id="Fill 4" fill-rule="evenodd" clip-rule="evenodd" d="M26.9014 24.4641C26.9014 26.5126 25.2443 28.1791 23.2071 28.1791H16.1242L23.4852 20.777C25.3907 20.9229 26.9014 22.5112 26.9014 24.4641ZM15.0801 20.4419V11.8329H23.2074C23.3463 11.8329 23.4834 11.8406 23.6183 11.8559L15.0801 20.4419ZM28.3784 15.5483C28.3784 13.8141 27.5303 12.2758 26.2292 11.3303L29.7405 7.79913L27.64 7.81116L24.8502 10.6166C24.3338 10.4422 23.7812 10.3476 23.2071 10.3476H13.6026V24.0278L25.166 12.3994C26.2075 13.0572 26.9014 14.2229 26.9014 15.5483C26.9014 17.597 25.2443 19.2633 23.2071 19.2633H22.9013L10.0361 32.2008H12.1249L14.6471 29.6645H23.2071C26.0586 29.6645 28.3784 27.3315 28.3784 24.4641C28.3784 22.5729 27.3663 20.9194 25.8616 20.0091C27.3679 19.0991 28.3784 17.4403 28.3784 15.5483Z" fill="white"/>
</g>
</g>
</svg>
