<svg width="16" height="16" viewBox="0 0 16 16" fill="none" xmlns="http://www.w3.org/2000/svg">
<path fill-rule="evenodd" clip-rule="evenodd" d="M3.46144 2.12794C3.60432 1.98506 3.79812 1.90479 4.00019 1.90479H11.6192C12.2504 1.90479 12.7621 2.41646 12.7621 3.04764V13.3334C12.7621 13.5354 12.6818 13.7292 12.5389 13.8721C12.396 14.015 12.2023 14.0953 12.0002 14.0953H4.00019C3.79812 14.0953 3.60432 14.015 3.46144 13.8721C3.31855 13.7292 3.23828 13.5354 3.23828 13.3334V2.66669C3.23828 2.46462 3.31855 2.27083 3.46144 2.12794ZM4.76214 6.85203C4.76214 6.53644 5.01797 6.2806 5.33357 6.2806H10.6669C10.9825 6.2806 11.2383 6.53644 11.2383 6.85203C11.2383 7.16762 10.9825 7.42346 10.6669 7.42346H5.33357C5.01797 7.42346 4.76214 7.16762 4.76214 6.85203ZM5.33357 8.94727C5.01797 8.94727 4.76214 9.2031 4.76214 9.51869C4.76214 9.83429 5.01797 10.0901 5.33357 10.0901H10.6669C10.9825 10.0901 11.2383 9.83429 11.2383 9.51869C11.2383 9.2031 10.9825 8.94727 10.6669 8.94727H5.33357Z" fill="#6C7889"/>
</svg>
