<svg width="14" height="14" viewBox="0 0 14 14" fill="none" xmlns="http://www.w3.org/2000/svg">
<g clip-path="url(#clip0_3039_39995)">
<path fill-rule="evenodd" clip-rule="evenodd" d="M7.22405 0.719412C7.08329 0.649031 6.9176 0.649031 6.77684 0.719412L0.943507 3.63608C0.774115 3.72078 0.667114 3.89391 0.667114 4.08329C0.667114 4.27268 0.774115 4.44581 0.943507 4.53051L6.77684 7.44717C6.9176 7.51756 7.08329 7.51756 7.22405 7.44717L13.0574 4.53051C13.2268 4.44581 13.3338 4.27268 13.3338 4.08329C13.3338 3.89391 13.2268 3.72078 13.0574 3.63608L7.22405 0.719412ZM0.719888 9.69302C0.843383 9.44603 1.14372 9.34592 1.39071 9.46941L7.00044 12.2743L12.6102 9.46941C12.8572 9.34592 13.1575 9.44603 13.281 9.69302C13.4045 9.94001 13.3044 10.2403 13.0574 10.3638L7.22404 13.2805C7.08328 13.3509 6.91759 13.3509 6.77683 13.2805L0.943495 10.3638C0.696506 10.2403 0.596394 9.94001 0.719888 9.69302ZM1.39071 6.55274C1.14372 6.42925 0.843383 6.52936 0.719888 6.77635C0.596394 7.02334 0.696506 7.32368 0.943495 7.44717L6.77683 10.3638C6.91759 10.4342 7.08328 10.4342 7.22404 10.3638L13.0574 7.44717C13.3044 7.32368 13.4045 7.02334 13.281 6.77635C13.1575 6.52936 12.8572 6.42925 12.6102 6.55274L7.00044 9.35761L1.39071 6.55274Z" fill="#6C7889"/>
</g>
<defs>
<clipPath id="clip0_3039_39995">
<rect width="14" height="14" fill="white"/>
</clipPath>
</defs>
</svg>
