<svg width="16" height="16" viewBox="0 0 16 16" fill="none" xmlns="http://www.w3.org/2000/svg">
<path fill-rule="evenodd" clip-rule="evenodd" d="M4 2C2.89543 2 2 2.89543 2 4V12C2 13.1046 2.89543 14 4 14H12C13.1046 14 14 13.1046 14 12V4C14 2.89543 13.1046 2 12 2H4ZM8 4.75715C8.27614 4.75715 8.5 4.98101 8.5 5.25715V9.53575L10.3893 7.64645C10.5846 7.45118 10.9011 7.45118 11.0964 7.64645C11.2917 7.84171 11.2917 8.15829 11.0964 8.35355L8.35521 11.0948C8.34958 11.1004 8.34381 11.106 8.33791 11.1114C8.29532 11.1505 8.24759 11.1809 8.19701 11.2026C8.13655 11.2285 8.06995 11.2429 8 11.2429C7.93004 11.2429 7.86344 11.2285 7.80299 11.2026C7.7506 11.1801 7.70127 11.1483 7.65754 11.1072L7.64531 11.0953L4.90359 8.35355C4.70833 8.15829 4.70833 7.84171 4.90359 7.64645C5.09885 7.45118 5.41543 7.45118 5.61069 7.64645L7.5 9.53575V5.25715C7.5 4.98101 7.72386 4.75715 8 4.75715Z" fill="#6C7889"/>
</svg>
