<svg width="16" height="16" viewBox="0 0 16 16" fill="none" xmlns="http://www.w3.org/2000/svg">
<path d="M6.95899 5.94521V3.51899C6.95888 3.41263 6.9308 3.30816 6.87757 3.21607C6.82434 3.12398 6.74783 3.04751 6.65571 2.99432L4.53277 1.78121C4.44056 1.72798 4.33597 1.69995 4.2295 1.69995C4.12302 1.69995 4.01843 1.72798 3.92622 1.78121L1.80328 2.99432C1.71116 3.04751 1.63465 3.12398 1.58142 3.21607C1.52819 3.30816 1.50011 3.41263 1.5 3.51899V5.94521C1.50011 6.05158 1.52819 6.15605 1.58142 6.24814C1.63465 6.34023 1.71116 6.4167 1.80328 6.46988L3.92622 7.68299C4.01843 7.73623 4.12302 7.76425 4.2295 7.76425C4.33597 7.76425 4.44056 7.73623 4.53277 7.68299L6.65571 6.46988C6.74783 6.4167 6.82434 6.34023 6.87757 6.24814C6.9308 6.15605 6.95888 6.05158 6.95899 5.94521Z" fill="#6C7889"/>
<path d="M10.749 12.4124V9.98616C10.7489 9.87979 10.7208 9.77532 10.6676 9.68323C10.6144 9.59114 10.5379 9.51467 10.4458 9.46149L8.32281 8.24838C8.2306 8.19514 8.12601 8.16711 8.01953 8.16711C7.91306 8.16711 7.80847 8.19514 7.71626 8.24838L5.59332 9.46149C5.5012 9.51467 5.42469 9.59114 5.37146 9.68323C5.31823 9.77532 5.29015 9.87979 5.29004 9.98616V12.4124C5.29015 12.5187 5.31823 12.6232 5.37146 12.7153C5.42469 12.8074 5.5012 12.8839 5.59332 12.937L7.71626 14.1502C7.80847 14.2034 7.91306 14.2314 8.01953 14.2314C8.12601 14.2314 8.2306 14.2034 8.32281 14.1502L10.4458 12.937C10.5379 12.8839 10.6144 12.8074 10.6676 12.7153C10.7208 12.6232 10.7489 12.5187 10.749 12.4124Z" fill="#6C7889"/>
<path d="M14.5391 5.94521V3.51899C14.539 3.41263 14.5109 3.30816 14.4577 3.21607C14.4044 3.12398 14.3279 3.04751 14.2358 2.99432L12.1129 1.78121C12.0206 1.72798 11.916 1.69995 11.8096 1.69995C11.7031 1.69995 11.5985 1.72798 11.5063 1.78121L9.38336 2.99432C9.29124 3.04751 9.21473 3.12398 9.1615 3.21607C9.10827 3.30816 9.08019 3.41263 9.08008 3.51899V5.94521C9.08019 6.05158 9.10827 6.15605 9.1615 6.24814C9.21473 6.34023 9.29124 6.4167 9.38336 6.46988L11.5063 7.68299C11.5985 7.73623 11.7031 7.76425 11.8096 7.76425C11.916 7.76425 12.0206 7.73623 12.1129 7.68299L14.2358 6.46988C14.3279 6.4167 14.4044 6.34023 14.4577 6.24814C14.5109 6.15605 14.539 6.05158 14.5391 5.94521Z" fill="#6C7889"/>
</svg>
