<svg width="16" height="16" viewBox="0 0 16 16" fill="none" xmlns="http://www.w3.org/2000/svg">
<path fill-rule="evenodd" clip-rule="evenodd" d="M2.57129 7.99999V4.85901C2.86711 5.02362 3.20775 5.16671 3.57652 5.28963C4.73483 5.67574 6.29868 5.90474 7.99986 5.90474C9.70104 5.90474 11.2649 5.67574 12.4232 5.28963C12.792 5.16671 13.1326 5.02362 13.4284 4.85901V7.99999C13.4284 8.02844 13.4122 8.14454 13.1762 8.33151C12.946 8.51395 12.577 8.70334 12.0689 8.87297C11.0586 9.21027 9.62266 9.42857 7.99986 9.42857C6.37706 9.42857 4.94114 9.21027 3.93081 8.87297C3.42269 8.70334 3.05374 8.51395 2.8235 8.33151C2.58756 8.14454 2.57129 8.02844 2.57129 7.99999ZM2.57129 9.52912V12.6666C2.57129 12.6951 2.58756 12.8112 2.8235 12.9982C3.05374 13.1806 3.42269 13.37 3.93081 13.5396C4.94114 13.8769 6.37706 14.0952 7.99986 14.0952C9.62266 14.0952 11.0586 13.8769 12.0689 13.5396C12.577 13.37 12.946 13.1806 13.1762 12.9982C13.4122 12.8112 13.4284 12.6951 13.4284 12.6666V9.52912C13.1347 9.69268 12.7967 9.83485 12.4308 9.95702C11.2745 10.3431 9.71039 10.5714 7.99986 10.5714C6.28933 10.5714 4.72525 10.3431 3.56891 9.95702C3.20297 9.83485 2.86503 9.69268 2.57129 9.52912Z" fill="#6C7889"/>
<path fill-rule="evenodd" clip-rule="evenodd" d="M2.57129 3.33336C2.57129 3.30735 2.58658 3.19162 2.82507 3.00367C3.05712 2.8208 3.4283 2.63112 3.93792 2.46125C4.95118 2.12349 6.38733 1.90479 7.99986 1.90479C9.61239 1.90479 11.0485 2.12349 12.0618 2.46125C12.5714 2.63112 12.9426 2.8208 13.1747 3.00367C13.4131 3.19162 13.4284 3.30735 13.4284 3.33336C13.4284 3.35937 13.4131 3.47509 13.1747 3.66304C12.9426 3.84591 12.5714 4.03559 12.0618 4.20547C11.0485 4.54322 9.61239 4.76193 7.99986 4.76193C6.38733 4.76193 4.95118 4.54322 3.93792 4.20547C3.4283 4.03559 3.05712 3.84591 2.82507 3.66304C2.58658 3.47509 2.57129 3.35937 2.57129 3.33336Z" fill="#6C7889"/>
</svg>
