<svg width="16" height="16" viewBox="0 0 16 16" fill="none" xmlns="http://www.w3.org/2000/svg">
<path fill-rule="evenodd" clip-rule="evenodd" d="M7.61891 2.0082C7.73473 1.94133 7.86612 1.90613 7.99986 1.90613C8.1336 1.90613 8.26499 1.94134 8.38081 2.00821L12.8316 4.5515L7.99985 7.34649L3.16813 4.55151L7.6167 2.00948L7.61891 2.0082ZM8.57129 8.33623L13.4284 5.52654V10.6661C13.4283 10.7997 13.393 10.9309 13.3262 11.0466C13.2595 11.1619 13.1637 11.2578 13.0485 11.3245L13.0475 11.3251L8.57129 13.8829V8.33623ZM7.42843 8.33624L2.57129 5.52655V10.6663C2.57147 10.7999 2.60674 10.931 2.67356 11.0466C2.74023 11.1619 2.83598 11.2578 2.95124 11.3245L2.95224 11.3251L7.42843 13.8829V8.33624Z" fill="#6C7889"/>
</svg>
