<svg width="16" height="16" viewBox="0 0 16 16" fill="none" xmlns="http://www.w3.org/2000/svg">
<path fill-rule="evenodd" clip-rule="evenodd" d="M7.23814 1.238C7.50872 1.08208 7.81554 1 8.12785 1C8.44017 1 8.747 1.08209 9.01759 1.23802L9.01883 1.23874L12.2839 3.10449L13.3353 2.50368L15.1608 3.54678V5.61848L14.0677 6.24308V9.90919C14.0674 10.2217 13.9849 10.5286 13.8285 10.7991C13.6721 11.0697 13.4474 11.2943 13.1767 11.4506L13.1744 11.4519L9.92364 13.3095V14.4789L8.09822 15.522L6.27279 14.4789V13.2756L3.08126 11.4519L3.07896 11.4506C2.80834 11.2943 2.58356 11.0697 2.42718 10.7991C2.27079 10.5286 2.1883 10.2217 2.18798 9.90919V6.29733L1 5.61848V3.54678L2.82543 2.50368L3.92431 3.13161L7.23814 1.238ZM9.51591 12.1742L8.09822 11.3641L6.71015 12.1573L3.67295 10.4218L3.67201 10.4212C3.58222 10.3692 3.50763 10.2945 3.45569 10.2046C3.4036 10.1145 3.37611 10.0123 3.37596 9.90823V6.347L4.65086 5.61848V4.0847L7.82856 2.26887L7.83085 2.26755C7.92115 2.21542 8.02358 2.18797 8.12785 2.18797C8.23211 2.18797 8.33454 2.21542 8.42484 2.26756L11.5099 4.03045V5.61848L12.8797 6.40125V9.90797C12.8796 10.0121 12.8521 10.1144 12.8 10.2046C12.7481 10.2945 12.6735 10.3692 12.5837 10.4212L12.5827 10.4218L9.51591 12.1742ZM11.0977 6.19201C11.0977 5.97886 10.9835 5.78205 10.7984 5.67629L8.42247 4.31861C8.23985 4.21426 8.01568 4.21426 7.83307 4.31861L5.45712 5.67629C5.27205 5.78204 5.15783 5.97886 5.15783 6.19202V8.87322C5.15783 9.08638 5.27205 9.28319 5.45712 9.38895L7.83307 10.7466C8.01568 10.851 8.23985 10.851 8.42247 10.7466L10.7984 9.38895C10.9835 9.28319 11.0977 9.08638 11.0977 8.87322V6.19201Z" fill="#6C7889"/>
</svg>
