<svg width="16" height="16" viewBox="0 0 16 16" fill="none" xmlns="http://www.w3.org/2000/svg">
<path fill-rule="evenodd" clip-rule="evenodd" d="M2 4C2 2.89543 2.89543 2 4 2H12C13.1046 2 14 2.89543 14 4V12C14 13.1046 13.1046 14 12 14H4C2.89543 14 2 13.1046 2 12V4ZM9.15781 5.31022C9.38097 5.08707 9.74278 5.08707 9.96593 5.31022L12.2516 7.59594C12.4748 7.8191 12.4748 8.1809 12.2516 8.40406L9.96593 10.6898C9.74278 10.9129 9.38097 10.9129 9.15781 10.6898C8.93465 10.4666 8.93465 10.1048 9.15781 9.88165L11.0395 8L9.15781 6.11835C8.93465 5.89519 8.93465 5.53338 9.15781 5.31022ZM6.91836 6.11835C7.14152 5.89519 7.14152 5.53338 6.91836 5.31022C6.6952 5.08707 6.3334 5.08707 6.11024 5.31022L3.82452 7.59594C3.60137 7.8191 3.60137 8.1809 3.82452 8.40406L6.11024 10.6898C6.3334 10.9129 6.6952 10.9129 6.91836 10.6898C7.14152 10.4666 7.14152 10.1048 6.91836 9.88165L5.03671 8L6.91836 6.11835Z" fill="#6C7889"/>
</svg>
