<svg width="67" height="6" viewBox="0 0 67 6" fill="none" xmlns="http://www.w3.org/2000/svg">
<path d="M0.333333 3C0.333333 4.47276 1.52724 5.66667 3 5.66667C4.47276 5.66667 5.66667 4.47276 5.66667 3C5.66667 1.52724 4.47276 0.333333 3 0.333333C1.52724 0.333333 0.333333 1.52724 0.333333 3ZM61.3333 3C61.3333 4.47276 62.5272 5.66667 64 5.66667C65.4728 5.66667 66.6667 4.47276 66.6667 3C66.6667 1.52724 65.4728 0.333333 64 0.333333C62.5272 0.333333 61.3333 1.52724 61.3333 3ZM3 3.5H64V2.5H3V3.5Z" fill="#202327"/>
</svg>
