<svg width="194" height="6" viewBox="0 0 194 6" fill="none" xmlns="http://www.w3.org/2000/svg">
<path d="M0.333333 3C0.333333 4.47276 1.52724 5.66667 3 5.66667C4.47276 5.66667 5.66667 4.47276 5.66667 3C5.66667 1.52724 4.47276 0.333333 3 0.333333C1.52724 0.333333 0.333333 1.52724 0.333333 3ZM188.333 3C188.333 4.47276 189.527 5.66667 191 5.66667C192.473 5.66667 193.667 4.47276 193.667 3C193.667 1.52724 192.473 0.333333 191 0.333333C189.527 0.333333 188.333 1.52724 188.333 3ZM3 3.5H191V2.5H3V3.5Z" fill="#202327"/>
</svg>
