<svg width="80" height="6" viewBox="0 0 80 6" fill="none" xmlns="http://www.w3.org/2000/svg">
<path d="M0.333333 3C0.333333 4.47276 1.52724 5.66667 3 5.66667C4.47276 5.66667 5.66667 4.47276 5.66667 3C5.66667 1.52724 4.47276 0.333333 3 0.333333C1.52724 0.333333 0.333333 1.52724 0.333333 3ZM74.3333 3C74.3333 4.47276 75.5272 5.66667 77 5.66667C78.4728 5.66667 79.6667 4.47276 79.6667 3C79.6667 1.52724 78.4728 0.333333 77 0.333333C75.5272 0.333333 74.3333 1.52724 74.3333 3ZM3 3.5H77V2.5H3V3.5Z" fill="#202327"/>
</svg>
